<svg width="143" height="143" viewBox="0 0 143 143" fill="none" xmlns="http://www.w3.org/2000/svg">
<circle cx="71.5" cy="71.5" r="71.5" fill="url(#paint0_linear)"/>
<path d="M58 50L47 43L71 31L96 43L82 49C81 48 77 46 71 46C65 46 61 48 60 49C60 49.1667 60.1 49.8 62.5 51C64.9 52.2 67.5 52.8333 68 53C64 53 60.3333 51.3333 59 50.5V42C60.6667 41 65.4 39.5 71 39.5C76.6 39.5 82 41 84 42C83.5 40.3333 79 37.5 71 37.5C63 37.5 58.6667 40.3333 58 42V50Z" fill="white"/>
<rect x="49" y="43.5" width="1" height="7" fill="white"/>
<rect x="48" y="47" width="3" height="6" rx="1.5" fill="white"/>
<path d="M43.1639 67.776C43.1639 65.58 41.6039 64.26 38.7719 64.092V63.24H36.9839V64.104C34.1399 64.272 32.5799 65.568 32.5799 67.776C32.5799 69.972 34.1399 71.28 36.9839 71.448V72.372H38.7719V71.46C41.6159 71.316 43.1639 69.984 43.1639 67.776ZM38.7719 69.936V65.628C40.4399 65.772 41.2919 66.468 41.2919 67.764C41.2919 69.072 40.4639 69.78 38.7719 69.936ZM34.4639 67.776C34.4639 66.468 35.2799 65.784 36.9839 65.628V69.936C35.3639 69.768 34.4639 69.072 34.4639 67.776ZM50.933 72H52.973L49.217 63.6H47.297L43.553 72H45.545L46.289 70.2H50.189L50.933 72ZM46.913 68.724L48.245 65.508L49.577 68.724H46.913ZM59.523 72H61.731L58.899 67.656L61.647 63.6H59.595L57.387 66.996H55.995V63.6H54.063V72H55.995V68.616H57.339L59.523 72ZM68.47 63.6L66.166 68.112L63.934 63.6H61.858L65.17 69.768L65.098 69.864C64.774 70.368 64.402 70.584 63.922 70.584C63.67 70.584 63.394 70.524 63.082 70.428L62.614 71.904C63.082 72.096 63.538 72.192 63.982 72.192C65.11 72.192 66.106 71.544 66.802 70.248L70.378 63.6H68.47ZM72.1932 63.6L72.0732 67.008C71.9892 69.156 71.7372 70.404 70.7532 70.404C70.6332 70.404 70.5252 70.392 70.4052 70.356L70.2852 72C70.6452 72.084 70.9572 72.132 71.2452 72.132C73.2132 72.132 73.6812 70.236 73.7892 66.936L73.8492 65.184H76.7292V72H78.6492V63.6H72.1932ZM84.8151 66.36H82.6791V63.6H80.7471V72H84.5391C86.6991 72 87.9951 71.004 87.9951 69.072C87.9951 67.26 86.8431 66.36 84.8151 66.36ZM84.4311 70.56H82.6791V67.8H84.4311C85.4391 67.8 86.0391 68.184 86.0391 69.108C86.0391 70.056 85.4271 70.56 84.4311 70.56ZM94.9367 63.6H87.6527V65.184H90.3287V72H92.2487V65.184H94.9367V63.6ZM98.0893 70.44V68.496H101.989V66.984H98.0893V65.16H102.505V63.6H96.1573V72H102.661V70.44H98.0893ZM110.652 63.6H103.368V65.184H106.044V72H107.964V65.184H110.652V63.6Z" fill="white"/>
<path d="M18.3038 78.6V87H20.2358V80.184H24.0278V87H25.9598V78.6H18.3038ZM31.678 78.6H28.042V87H29.986V84.684H31.678C33.922 84.684 35.326 83.52 35.326 81.648C35.326 79.764 33.922 78.6 31.678 78.6ZM31.57 83.1H29.986V80.184H31.57C32.758 80.184 33.358 80.724 33.358 81.648C33.358 82.56 32.758 83.1 31.57 83.1ZM40.7336 87.144C43.3736 87.144 45.3296 85.308 45.3296 82.8C45.3296 80.292 43.3736 78.456 40.7336 78.456C38.0816 78.456 36.1376 80.304 36.1376 82.8C36.1376 85.296 38.0816 87.144 40.7336 87.144ZM40.7336 85.488C39.2336 85.488 38.1056 84.396 38.1056 82.8C38.1056 81.204 39.2336 80.112 40.7336 80.112C42.2336 80.112 43.3616 81.204 43.3616 82.8C43.3616 84.396 42.2336 85.488 40.7336 85.488ZM52.7552 78.6H46.8272V87H48.7592L48.7472 80.184H52.7432L52.7552 78.6ZM57.5765 78.6H53.9405V87H55.8845V84.684H57.5765C59.8205 84.684 61.2245 83.52 61.2245 81.648C61.2245 79.764 59.8205 78.6 57.5765 78.6ZM57.4685 83.1H55.8845V80.184H57.4685C58.6565 80.184 59.2565 80.724 59.2565 81.648C59.2565 82.56 58.6565 83.1 57.4685 83.1ZM68.517 87H70.557L66.801 78.6H64.881L61.137 87H63.129L63.873 85.2H67.773L68.517 87ZM64.497 83.724L65.829 80.508L67.161 83.724H64.497ZM81.139 87L81.127 78.6H79.519L76.423 83.82L73.279 78.6H71.671V87H73.495V82.068L75.967 86.112H76.831L79.303 81.972L79.315 87H81.139ZM92.6936 87L92.6816 78.6H91.0736L87.9776 83.82L84.8336 78.6H83.2256V87H85.0496V82.068L87.5216 86.112H88.3856L90.8576 81.972L90.8696 87H92.6936ZM100.54 78.6V81.912H96.7243V78.6H94.7803V87H96.7243V83.556H100.54V87H102.484V78.6H100.54ZM108.657 81.36H106.521V78.6H104.589V87H108.381C110.541 87 111.837 86.004 111.837 84.072C111.837 82.26 110.685 81.36 108.657 81.36ZM112.905 87H114.837V78.6H112.905V87ZM108.273 85.56H106.521V82.8H108.273C109.281 82.8 109.881 83.184 109.881 84.108C109.881 85.056 109.269 85.56 108.273 85.56ZM120.805 78.06C122.377 78.06 123.121 77.4 123.133 76.224H121.801C121.789 76.8 121.441 77.1 120.805 77.1C120.145 77.1 119.821 76.8 119.809 76.224H118.477C118.489 77.4 119.209 78.06 120.805 78.06ZM116.929 87H118.765L122.773 81.54V87H124.693V78.6H122.869L118.861 84.072V78.6H116.929V87Z" fill="white"/>
<path opacity="0.9" d="M23.4405 102H25.2765L29.2845 96.54V102H31.2045V93.6H29.3805L25.3725 99.072V93.6H23.4405V102ZM39.056 93.6V96.912H35.24V93.6H33.296V102H35.24V98.556H39.056V102H41V93.6H39.056ZM52.6085 102H54.8525L52.3445 97.608L54.6965 93.6H52.6445L50.7485 96.996H49.5005V93.6H47.5925V96.996H46.3085L44.4245 93.6H42.3725L44.7365 97.608L42.2165 102H44.4605L46.3445 98.616H47.5925V102H49.5005V98.616H50.7245L52.6085 102ZM55.7842 102H57.6202L61.6282 96.54V102H63.5482V93.6H61.7242L57.7162 99.072V93.6H55.7842V102ZM71.3997 93.6V96.912H67.5837V93.6H65.6397V102H67.5837V98.556H71.3997V102H73.3437V93.6H71.3997ZM75.4483 102H77.2843L81.2923 96.54V102H83.2123V93.6H81.3883L77.3803 99.072V93.6H75.4483V102ZM88.9398 93.6H85.3038V102H87.2478V99.684H88.9398C91.1838 99.684 92.5878 98.52 92.5878 96.648C92.5878 94.764 91.1838 93.6 88.9398 93.6ZM88.8318 98.1H87.2478V95.184H88.8318C90.0198 95.184 90.6198 95.724 90.6198 96.648C90.6198 97.56 90.0198 98.1 88.8318 98.1ZM93.8702 102H95.7062L99.7142 96.54V102H101.634V93.6H99.8102L95.8022 99.072V93.6H93.8702V102ZM109.486 93.6V96.912H105.67V93.6H103.726V102H105.67V98.556H109.486V102H111.43V93.6H109.486ZM119.462 93.6H113.534V102H115.466L115.454 95.184H119.45L119.462 93.6Z" fill="white"/>
<defs>
<linearGradient id="paint0_linear" x1="59" y1="-12.5" x2="160" y2="88.5" gradientUnits="userSpaceOnUse">
<stop stop-color="#017ABC"/>
<stop offset="1" stop-color="#0095E7"/>
</linearGradient>
</defs>
</svg>
