<svg width="143" height="143" viewBox="0 0 143 143" fill="none" xmlns="http://www.w3.org/2000/svg">
<circle cx="71.5" cy="71.5" r="71.5" fill="url(#paint0_linear)"/>
<path d="M58 54L47 47L71 35L96 47L82 53C81 52 77 50 71 50C65 50 61 52 60 53C60 53.1667 60.1 53.8 62.5 55C64.9 56.2 67.5 56.8333 68 57C64 57 60.3333 55.3333 59 54.5V46C60.6667 45 65.4 43.5 71 43.5C76.6 43.5 82 45 84 46C83.5 44.3333 79 41.5 71 41.5C63 41.5 58.6667 44.3333 58 46V54Z" fill="white"/>
<rect x="49" y="47.5" width="1" height="7" fill="white"/>
<rect x="48" y="51" width="3" height="6" rx="1.5" fill="white"/>
<path d="M42.6611 68.4H33.7691V81H36.6671L36.6491 70.776H42.6431L42.6611 68.4ZM49.893 68.4H44.439V81H47.355V77.526H49.893C53.259 77.526 55.365 75.78 55.365 72.972C55.365 70.146 53.259 68.4 49.893 68.4ZM49.731 75.15H47.355V70.776H49.731C51.513 70.776 52.413 71.586 52.413 72.972C52.413 74.34 51.513 75.15 49.731 75.15ZM65.5214 68.4L62.0654 75.168L58.7174 68.4H55.6034L60.5714 77.652L60.4634 77.796C59.9774 78.552 59.4194 78.876 58.6994 78.876C58.3214 78.876 57.9074 78.786 57.4394 78.642L56.7374 80.856C57.4394 81.144 58.1234 81.288 58.7894 81.288C60.4814 81.288 61.9754 80.316 63.0194 78.372L68.3834 68.4H65.5214ZM69.7691 68.4V81H72.6671V70.776H78.3551V81H81.2531V68.4H69.7691ZM84.3765 68.4V81H87.2745V70.776H92.9625V81H95.8605V68.4H84.3765ZM108.632 81H111.692L106.058 68.4H103.178L97.562 81H100.55L101.666 78.3H107.516L108.632 81ZM102.602 76.086L104.6 71.262L106.598 76.086H102.602Z" fill="white"/>
<path d="M52.0792 95.53L54.9232 92.29V90.4H46.1032V92.74H51.4672L48.8752 95.674V97.6H50.2072C51.8632 97.6 52.5652 98.194 52.5652 99.148C52.5652 100.174 51.6652 100.768 50.2072 100.768C48.8932 100.768 47.5612 100.354 46.6072 99.634L45.4732 101.866C46.6972 102.73 48.5152 103.216 50.2792 103.216C53.8612 103.216 55.4992 101.272 55.4992 99.148C55.4992 97.294 54.3472 95.89 52.0792 95.53ZM56.2696 90.4V92.74H58.7896V103H61.7056V90.4H56.2696ZM69.9604 95.098C68.6464 95.098 67.5844 95.476 66.8464 96.214C66.9364 93.802 68.2864 92.56 70.3924 92.56C71.2384 92.56 72.0484 92.722 72.7504 93.19L73.8304 91.048C72.9484 90.49 71.6524 90.184 70.3204 90.184C66.5224 90.184 63.8944 92.614 63.8944 96.97C63.8944 101.038 66.0544 103.216 69.5284 103.216C72.1924 103.216 74.2984 101.596 74.2984 99.022C74.2984 96.646 72.3904 95.098 69.9604 95.098ZM69.3664 101.038C67.9624 101.038 67.1524 100.246 67.1524 99.166C67.1524 98.068 68.0524 97.276 69.3304 97.276C70.6264 97.276 71.4724 98.014 71.4724 99.166C71.4724 100.318 70.6084 101.038 69.3664 101.038ZM75.6772 99.058H80.7712V96.808H75.6772V99.058ZM81.4239 90.4V92.74H83.9439V103H86.8599V90.4H81.4239ZM88.8147 90.4V94.828H91.4067V92.776H95.5827L91.0647 103H94.2327L98.9127 92.29V90.4H88.8147Z" fill="white"/>
<defs>
<linearGradient id="paint0_linear" x1="59" y1="-12.5" x2="160" y2="88.5" gradientUnits="userSpaceOnUse">
<stop stop-color="#017ABC"/>
<stop offset="1" stop-color="#0095E7"/>
</linearGradient>
</defs>
</svg>
